<svg width="933" height="151" viewBox="0 0 933 151" fill="none" xmlns="http://www.w3.org/2000/svg">
<g clip-path="url(#clip0_107_182)">
<path d="M26.1896 14.6348H0V41.0696H26.1896V14.6348Z" fill="black"/>
<path d="M26.1895 75.437C26.1894 82.5293 28.369 89.4729 32.4643 95.3121C37.0381 101.833 43.7212 106.578 51.386 108.745C59.0511 110.911 67.2287 110.368 74.5396 107.207C81.851 104.045 87.848 98.459 91.5191 91.3901L114.761 103.46C108.312 115.878 97.7778 125.692 84.9347 131.245C72.0919 136.799 57.7263 137.753 44.2617 133.947C30.7969 130.141 19.057 121.806 11.0223 110.351C3.82824 100.093 -0.000223448 87.8954 1.11687e-05 75.437L0 51.345H26.1895V75.437Z" fill="black"/>
<path d="M60.8019 14.6355C72.0125 14.6355 83.0616 17.7358 92.6942 23.6702C104.607 31.0096 113.624 42.2331 118.224 55.4476L93.4907 64.0578C90.8718 56.5354 85.7386 50.1461 78.9571 45.9679C73.4736 42.5897 67.1837 40.8243 60.8019 40.8243H36.7595V14.6355L60.8019 14.6355Z" fill="black"/>
</g>
<path d="M208.995 115.946C200.324 115.946 193.033 114.172 187.121 110.625C181.209 106.999 176.755 101.994 173.759 95.6086C170.764 89.2236 169.266 81.8139 169.266 73.3794C169.266 64.9449 170.803 57.4957 173.878 51.0319C176.952 44.5681 181.445 39.5232 187.357 35.8972C193.269 32.1923 200.482 30.3399 208.995 30.3399C215.301 30.3399 220.858 31.404 225.667 33.5323C230.475 35.6607 234.377 38.6955 237.373 42.6369C240.447 46.4994 242.418 51.2684 243.285 56.9439H228.978C227.874 52.9238 225.628 49.7707 222.238 47.4847C218.848 45.1987 214.434 44.0557 208.995 44.0557C203.083 44.0557 198.314 45.4352 194.688 48.1942C191.062 50.9531 188.421 54.5003 186.766 58.8358C185.189 63.1713 184.401 67.8221 184.401 72.7882C184.401 77.9119 185.229 82.7204 186.884 87.2135C188.618 91.7066 191.338 95.3327 195.043 98.0916C198.748 100.851 203.517 102.23 209.35 102.23C212.976 102.23 216.129 101.718 218.809 100.693C221.568 99.6682 223.854 98.2099 225.667 96.318C227.559 94.3473 228.859 92.0614 229.569 89.4601H244.585C243.639 95.0568 241.511 99.8258 238.2 103.767C234.969 107.709 230.83 110.743 225.785 112.872C220.819 114.921 215.222 115.946 208.995 115.946ZM283.124 143.496C278.316 143.496 273.626 142.826 269.054 141.486C264.561 140.225 260.383 138.057 256.52 134.983L261.723 123.395C264.403 125.523 267.398 127.179 270.709 128.361C274.02 129.622 277.646 130.253 281.587 130.253C287.815 130.253 292.347 128.676 295.185 125.523C298.102 122.37 299.56 118.074 299.56 112.635V108.024C298.141 109.837 296.407 111.335 294.357 112.517C292.308 113.699 290.101 114.566 287.736 115.118C285.371 115.67 282.967 115.946 280.523 115.946C274.453 115.946 269.606 114.724 265.98 112.28C262.432 109.758 259.87 106.329 258.294 101.994C256.717 97.5792 255.929 92.5737 255.929 86.977V52.6873H270.236V83.7845C270.236 85.9917 270.394 88.2382 270.709 90.5242C271.024 92.8102 271.655 94.8991 272.601 96.791C273.547 98.6828 274.926 100.22 276.739 101.402C278.631 102.506 281.114 103.058 284.189 103.058C288.209 103.058 291.322 102.072 293.53 100.102C295.737 98.131 297.234 95.5692 298.023 92.4161C298.89 89.263 299.323 85.9129 299.323 82.3656V52.6873H313.749V109.088C313.749 114.369 313.197 119.099 312.093 123.277C310.99 127.533 309.216 131.16 306.772 134.155C304.329 137.15 301.176 139.436 297.313 141.013C293.451 142.668 288.721 143.496 283.124 143.496ZM361.205 115.828C358.919 115.828 356.633 115.591 354.347 115.118C352.061 114.645 349.854 113.818 347.725 112.635C345.676 111.453 343.784 109.876 342.05 107.906L341.695 115H327.743V31.404H342.168V60.4912C344.454 57.5746 347.371 55.4068 350.918 53.9879C354.544 52.4902 358.288 51.7414 362.151 51.7414C368.299 51.7414 373.344 53.1603 377.285 55.998C381.306 58.757 384.262 62.5407 386.153 67.3491C388.124 72.1576 389.109 77.5966 389.109 83.6663C389.109 89.736 388.085 95.2144 386.035 100.102C384.064 104.91 381.03 108.733 376.931 111.571C372.832 114.409 367.59 115.828 361.205 115.828ZM358.84 103.058C362.86 103.058 366.013 102.151 368.299 100.338C370.664 98.4463 372.359 96.0027 373.383 93.0073C374.408 90.0119 374.921 86.8588 374.921 83.548C374.921 80.1585 374.369 77.0448 373.265 74.207C372.24 71.3693 370.546 69.0833 368.181 67.3491C365.816 65.6149 362.663 64.7478 358.722 64.7478C355.096 64.7478 352.021 65.6937 349.499 67.5856C347.055 69.3986 345.203 71.8028 343.942 74.7983C342.68 77.7149 342.05 80.7497 342.05 83.9028C342.05 87.2135 342.601 90.3272 343.705 93.2438C344.887 96.1604 346.7 98.5252 349.144 100.338C351.667 102.151 354.898 103.058 358.84 103.058ZM428.624 115.828C422.16 115.828 416.642 114.488 412.07 111.808C407.577 109.127 404.148 105.423 401.783 100.693C399.497 95.8845 398.354 90.3272 398.354 84.021C398.354 77.7149 399.537 72.1576 401.902 67.3491C404.345 62.4618 407.814 58.6387 412.307 55.8798C416.879 53.1208 422.357 51.7414 428.742 51.7414C433.472 51.7414 437.61 52.6085 441.157 54.3427C444.705 55.998 447.661 58.284 450.025 61.2006C452.469 64.1172 454.282 67.4279 455.464 71.1328C456.647 74.8377 457.199 78.7396 457.12 82.8386C457.041 83.7845 456.962 84.7304 456.883 85.6764C456.804 86.5435 456.686 87.4894 456.529 88.5141H412.78C413.016 91.2731 413.726 93.7955 414.908 96.0815C416.169 98.3675 417.903 100.181 420.111 101.521C422.397 102.861 425.234 103.531 428.624 103.531C430.595 103.531 432.486 103.294 434.299 102.821C436.112 102.269 437.689 101.481 439.029 100.456C440.448 99.4317 441.394 98.131 441.867 96.5545H456.292C455.267 101.048 453.376 104.713 450.617 107.551C447.858 110.389 444.547 112.478 440.684 113.818C436.901 115.158 432.881 115.828 428.624 115.828ZM413.016 77.7543H443.049C443.049 75.153 442.458 72.7882 441.276 70.6598C440.093 68.5315 438.398 66.8761 436.191 65.6937C434.063 64.4325 431.462 63.8019 428.387 63.8019C425.077 63.8019 422.318 64.4719 420.111 65.812C417.903 67.152 416.209 68.8862 415.026 71.0146C413.844 73.1429 413.174 75.3895 413.016 77.7543ZM468.615 115V52.6873H481.74L482.567 60.8459C484.144 58.4811 485.917 56.6681 487.888 55.4068C489.938 54.0668 492.105 53.1208 494.391 52.5691C496.756 52.0173 499.121 51.7414 501.486 51.7414C502.353 51.7414 503.141 51.7414 503.851 51.7414C504.639 51.7414 505.27 51.7808 505.742 51.8596V65.5755H501.959C497.86 65.5755 494.391 66.3638 491.554 67.9403C488.716 69.5168 486.588 71.7634 485.169 74.68C483.75 77.5966 483.04 81.1832 483.04 85.4399V115H468.615ZM514.225 115V52.6873H528.651V115H514.225ZM521.438 45.4746C518.679 45.4746 516.472 44.6469 514.816 42.9916C513.161 41.3362 512.333 39.1685 512.333 36.4884C512.333 33.8871 513.201 31.7587 514.935 30.1034C516.669 28.3692 518.837 27.5021 521.438 27.5021C523.96 27.5021 526.128 28.3298 527.941 29.9851C529.754 31.6405 530.661 33.8082 530.661 36.4884C530.661 39.1685 529.794 41.3362 528.059 42.9916C526.325 44.6469 524.118 45.4746 521.438 45.4746ZM542.631 115V52.6873H555.874L556.82 59.7817C558.396 57.6534 560.091 56.0374 561.904 54.9339C563.796 53.7515 565.727 52.9238 567.698 52.4508C569.747 51.9778 571.678 51.7414 573.491 51.7414C577.433 51.7414 580.783 52.5296 583.542 54.1062C586.38 55.6827 588.587 58.0475 590.163 61.2006C591.74 58.9935 593.513 57.2198 595.484 55.8798C597.455 54.4609 599.544 53.4362 601.751 52.8055C603.958 52.0961 606.283 51.7414 608.727 51.7414C613.536 51.7414 617.398 52.7661 620.315 54.8156C623.231 56.7863 625.36 59.5452 626.7 63.0925C628.04 66.5608 628.71 70.5416 628.71 75.0347V115H614.284V79.6461C614.284 78.0696 614.206 76.4142 614.048 74.68C613.89 72.9458 613.457 71.3299 612.747 69.8322C612.117 68.3344 611.171 67.1126 609.909 66.1667C608.648 65.2208 606.875 64.7478 604.589 64.7478C602.303 64.7478 600.411 65.2602 598.913 66.2849C597.494 67.2309 596.312 68.5315 595.366 70.1869C594.499 71.7634 593.868 73.537 593.474 75.5077C593.159 77.3995 593.001 79.2914 593.001 81.1832V115H578.576V79.5279C578.576 78.0302 578.458 76.4536 578.221 74.7983C578.063 73.0641 577.669 71.4481 577.039 69.9504C576.487 68.3739 575.541 67.1126 574.201 66.1667C572.94 65.2208 571.166 64.7478 568.88 64.7478C565.569 64.7478 563.047 65.6543 561.313 67.4673C559.657 69.2804 558.514 71.4875 557.884 74.0888C557.332 76.6901 557.056 79.1731 557.056 81.538V115H542.631ZM642.05 137.939V52.6873H655.529L656.238 61.0824C658.682 57.8505 661.599 55.4857 664.988 53.9879C668.378 52.4902 672.122 51.7414 676.221 51.7414C682.37 51.7414 687.454 53.1603 691.474 55.998C695.494 58.8358 698.49 62.6589 700.46 67.4673C702.431 72.2758 703.416 77.7149 703.416 83.7845C703.416 89.8542 702.392 95.3327 700.342 100.22C698.293 105.028 695.179 108.851 691.001 111.689C686.902 114.448 681.739 115.828 675.512 115.828C672.595 115.828 669.915 115.512 667.471 114.882C665.107 114.251 662.978 113.345 661.086 112.162C659.273 110.98 657.736 109.64 656.475 108.142V137.939H642.05ZM673.265 102.821C677.285 102.821 680.438 101.954 682.724 100.22C685.01 98.4069 686.666 96.0815 687.69 93.2438C688.715 90.3272 689.228 87.2529 689.228 84.021C689.228 80.6314 688.676 77.4784 687.572 74.5618C686.547 71.6452 684.853 69.2804 682.488 67.4673C680.123 65.6543 676.97 64.7478 673.029 64.7478C669.403 64.7478 666.328 65.6543 663.806 67.4673C661.362 69.2015 659.51 71.5269 658.249 74.4435C656.987 77.3601 656.357 80.5132 656.357 83.9028C656.357 87.3712 656.948 90.5636 658.13 93.4802C659.313 96.318 661.165 98.604 663.688 100.338C666.21 101.994 669.403 102.821 673.265 102.821ZM742.576 115.828C733.59 115.828 726.693 113.502 721.884 108.851C717.155 104.201 714.79 97.1063 714.79 87.5682V52.6873H729.215V86.6223C729.215 89.933 729.649 92.8102 730.516 95.2538C731.462 97.6975 732.92 99.5893 734.891 100.929C736.94 102.191 739.502 102.821 742.576 102.821C745.887 102.821 748.488 102.151 750.38 100.811C752.351 99.3923 753.73 97.461 754.518 95.0174C755.307 92.5737 755.701 89.7754 755.701 86.6223V52.6873H770.126V87.5682C770.126 97.3428 767.683 104.516 762.795 109.088C757.987 113.581 751.247 115.828 742.576 115.828ZM783.846 115V31.404H798.271V115H783.846ZM836.136 115.828C833.14 115.828 830.145 115.512 827.15 114.882C824.233 114.251 821.474 113.226 818.873 111.808C816.271 110.31 814.104 108.3 812.369 105.777C810.635 103.255 809.492 100.102 808.94 96.318H823.484C824.115 98.0522 825.1 99.4711 826.44 100.575C827.859 101.599 829.475 102.388 831.288 102.939C833.18 103.412 835.032 103.649 836.845 103.649C837.949 103.649 839.131 103.57 840.392 103.412C841.732 103.255 842.954 102.939 844.058 102.467C845.24 101.994 846.186 101.324 846.896 100.456C847.605 99.5105 847.96 98.2887 847.96 96.791C847.96 95.3721 847.566 94.2685 846.777 93.4802C845.989 92.6131 844.925 91.9431 843.585 91.4702C842.245 90.9184 840.629 90.4848 838.737 90.1695C835.348 89.4601 831.721 88.7112 827.859 87.9229C823.996 87.0558 820.646 85.7158 817.809 83.9028C816.626 83.1933 815.601 82.3656 814.734 81.4197C813.867 80.4738 813.118 79.449 812.488 78.3455C811.936 77.1631 811.502 75.9018 811.187 74.5618C810.951 73.2217 810.832 71.7634 810.832 70.1869C810.832 66.8761 811.502 64.0778 812.842 61.7918C814.261 59.427 816.114 57.5352 818.4 56.1163C820.765 54.6186 823.445 53.515 826.44 52.8055C829.435 52.0961 832.51 51.7414 835.663 51.7414C839.919 51.7414 843.782 52.4114 847.25 53.7515C850.719 55.0915 853.596 57.141 855.882 59.9C858.247 62.6589 859.666 66.1667 860.139 70.4234H846.423C846.029 68.4527 844.807 66.8761 842.757 65.6937C840.787 64.5113 838.264 63.9201 835.19 63.9201C834.086 63.9201 832.943 64.0384 831.761 64.2749C830.578 64.4325 829.435 64.7478 828.332 65.2208C827.307 65.6149 826.44 66.2455 825.731 67.1126C825.1 67.9797 824.785 69.0439 824.785 70.3051C824.785 71.4875 825.061 72.5123 825.612 73.3794C826.243 74.2465 827.15 74.9953 828.332 75.6259C829.593 76.1777 831.051 76.6507 832.707 77.0448C835.387 77.5966 838.185 78.1484 841.102 78.7002C844.018 79.252 846.541 79.8038 848.669 80.3556C851.192 81.065 853.478 82.0897 855.527 83.4298C857.577 84.691 859.153 86.3858 860.257 88.5141C861.439 90.5636 862.03 93.2043 862.03 96.4363C862.03 100.22 861.242 103.373 859.666 105.895C858.168 108.418 856.158 110.389 853.635 111.808C851.113 113.226 848.315 114.251 845.24 114.882C842.166 115.512 839.131 115.828 836.136 115.828ZM892.506 115.828C889.589 115.828 886.83 115.434 884.229 114.645C881.628 113.857 879.302 112.714 877.253 111.216C875.203 109.64 873.548 107.709 872.287 105.423C871.104 103.058 870.513 100.299 870.513 97.1457C870.513 93.1255 871.302 89.8542 872.878 87.3317C874.455 84.7304 876.583 82.7598 879.263 81.4197C882.022 80.0797 885.136 79.1731 888.604 78.7002C892.072 78.1484 895.698 77.8725 899.482 77.8725H911.661C911.661 75.1136 911.227 72.7488 910.36 70.7781C909.493 68.7286 908.114 67.1126 906.222 65.9302C904.409 64.7478 902.044 64.1566 899.127 64.1566C897.236 64.1566 895.462 64.3931 893.807 64.8661C892.23 65.2602 890.851 65.9302 889.668 66.8761C888.565 67.7432 887.776 68.8862 887.303 70.3051H872.523C873.075 67.0732 874.179 64.3143 875.834 62.0283C877.568 59.6635 879.657 57.7322 882.101 56.2345C884.623 54.7368 887.382 53.6332 890.378 52.9238C893.373 52.1355 896.408 51.7414 899.482 51.7414C908.547 51.7414 915.129 54.3427 919.228 59.5452C923.406 64.7478 925.495 72.0393 925.495 81.4197V115H912.725L912.37 106.96C910.557 109.64 908.39 111.61 905.867 112.872C903.345 114.133 900.901 114.921 898.536 115.236C896.171 115.631 894.161 115.828 892.506 115.828ZM895.344 104.122C898.497 104.122 901.295 103.531 903.739 102.348C906.182 101.166 908.114 99.5105 909.533 97.3822C911.03 95.2538 911.779 92.8102 911.779 90.0513V88.0412H900.428C898.536 88.0412 896.644 88.12 894.753 88.2777C892.94 88.3565 891.284 88.6718 889.786 89.2236C888.289 89.6965 887.067 90.4454 886.121 91.4702C885.254 92.4949 884.82 93.9532 884.82 95.8451C884.82 97.7369 885.293 99.274 886.239 100.456C887.264 101.639 888.565 102.545 890.141 103.176C891.797 103.807 893.531 104.122 895.344 104.122Z" fill="black"/>
<defs>
<clipPath id="clip0_107_182">
<rect width="118.537" height="121.731" fill="white" transform="translate(0 14.6348)"/>
</clipPath>
</defs>
</svg>
