<svg width="256" height="256" viewBox="0 0 256 256" fill="none" xmlns="http://www.w3.org/2000/svg">
<rect x="6.80762" y="51.8563" width="242.385" height="152.287" rx="50.1006" fill="#03C5E6"/>
<path d="M128.455 167.745C121.621 167.745 115.551 166.396 110.245 163.698C104.939 160.91 100.802 156.774 97.8346 151.288C94.867 145.712 93.3831 138.743 93.3831 130.379C93.3831 121.656 94.9119 114.552 97.9695 109.066C101.117 103.491 105.344 99.3991 110.649 96.7911C116.045 94.0933 122.115 92.7444 128.86 92.7444C135.874 92.7444 141.99 94.1383 147.205 96.926C152.511 99.6239 156.603 103.761 159.481 109.336C162.448 114.822 163.932 121.791 163.932 130.245C163.932 138.968 162.358 146.117 159.211 151.693C156.153 157.178 151.927 161.225 146.531 163.833C141.225 166.441 135.2 167.745 128.455 167.745ZM128.995 151.693C131.783 151.693 134.121 150.928 136.009 149.399C137.898 147.781 139.337 145.443 140.326 142.385C141.315 139.327 141.81 135.685 141.81 131.459C141.81 126.782 141.27 122.87 140.191 119.723C139.112 116.486 137.538 114.012 135.47 112.304C133.491 110.595 131.063 109.741 128.186 109.741C125.488 109.741 123.194 110.55 121.306 112.169C119.417 113.698 117.979 115.991 116.989 119.048C116 122.106 115.506 125.793 115.506 130.11C115.506 136.944 116.675 142.25 119.013 146.027C121.441 149.804 124.768 151.693 128.995 151.693ZM194.604 186.9C191.907 186.9 188.939 186.675 185.702 186.225C182.464 185.776 179.227 185.056 175.989 184.067C172.752 183.078 169.739 181.819 166.951 180.29L171.942 158.302C175.18 161.36 178.777 163.518 182.734 164.777C186.781 166.036 190.378 166.666 193.525 166.666C197.932 166.666 201.619 165.811 204.587 164.103C207.644 162.304 209.937 159.741 211.466 156.414C212.995 152.997 213.759 148.86 213.759 144.004V131.594H212.545C212.365 137.889 211.331 143.059 209.443 147.106C207.644 151.063 205.171 153.986 202.024 155.874C198.876 157.763 195.234 158.707 191.097 158.707C185.971 158.707 181.7 157.403 178.282 154.795C174.955 152.187 172.437 148.275 170.728 143.059C169.02 137.844 168.165 131.324 168.165 123.5V94.6329H189.883V117.834C189.883 125.478 190.693 131.054 192.311 134.561C193.93 138.068 196.493 139.822 200 139.822C201.799 139.822 203.373 139.372 204.721 138.473C206.16 137.484 207.329 136.045 208.229 134.156C209.128 132.178 209.802 129.75 210.252 126.872C210.702 123.905 210.927 120.487 210.927 116.62V94.6329H232.644V144.813C232.644 149.669 232.15 154.256 231.16 158.572C230.171 162.799 228.687 166.621 226.709 170.038C224.731 173.545 222.213 176.558 219.155 179.076C216.187 181.594 212.635 183.527 208.498 184.876C204.452 186.225 199.82 186.9 194.604 186.9Z" fill="#EEFDFF"/>
<path d="M61.3146 69.1004C64.0124 69.1004 66.9801 69.3253 70.2175 69.7749C73.4549 70.2246 76.6923 70.944 79.9298 71.9332C83.1672 72.9224 86.1798 74.1814 88.9676 75.7102L83.9766 97.6977C80.7391 94.6402 77.142 92.4819 73.1851 91.2229C69.1383 89.9639 65.5412 89.3344 62.3937 89.3344C57.9872 89.3344 54.3001 90.1887 51.3325 91.8973C48.2749 93.6959 45.9817 96.2589 44.4529 99.5862C42.9242 103.004 42.1598 107.14 42.1598 111.996L42.1598 124.407L43.3738 124.407C43.5537 118.112 44.5878 112.941 46.4763 108.894C48.2749 104.937 50.7479 102.014 53.8955 100.126C57.043 98.2373 60.6851 97.2931 64.8218 97.2931C69.9477 97.2931 74.2193 98.597 77.6366 101.205C80.964 103.813 83.482 107.725 85.1906 112.941C86.8993 118.157 87.7536 124.676 87.7536 132.5L87.7536 161.367L66.0358 161.367L66.0358 138.166C66.0358 130.522 65.2265 124.946 63.6077 121.439C61.989 117.932 59.4261 116.178 55.9188 116.178C54.1203 116.178 52.5465 116.628 51.1976 117.527C49.7587 118.516 48.5897 119.955 47.6904 121.844C46.7911 123.822 46.1166 126.25 45.667 129.128C45.2173 132.095 44.9925 135.513 44.9925 139.38L44.9925 161.367L23.2748 161.367L23.2748 111.187C23.2748 106.331 23.7694 101.745 24.7586 97.428C25.7478 93.2013 27.2316 89.3794 29.21 85.9621C31.1885 82.4548 33.7065 79.4422 36.764 76.9242C39.7317 74.4062 43.2839 72.4728 47.4206 71.1238C51.4674 69.7749 56.0987 69.1004 61.3146 69.1004Z" fill="#EEFDFF"/>
</svg>
