<?xml version="1.0" encoding="utf-8"?>
<svg xmlns="http://www.w3.org/2000/svg" height="157.96" width="522.44" x="0px" y="0px" viewBox="0 0 522.44 157.96" style="enable-background:new 0 0 522.44 157.96;" xml:space="preserve" preserveAspectRatio="xMinYMin none">
  <g fill="#007f47">
    <path d="M.08 158.305h50.712V1.811H.08z"/>
    <path d="M119.16 96.79v61.515H68.663V1.811h131.346v43.438h-80.847v14.548h80.847V96.79h-80.847"/>
    <path d="M266.092 114.244V45.249h89.225V1.811H252.376c-20.78 0-36.992 17.042-36.992 36.994v82.296c0 21.41 17.459 37.204 37.41 37.204h102.523v-44.061h-89.225"/>
    <path d="M442.723 114.767c-19.356 0-35.046-15.694-35.046-35.052 0-19.348 15.69-35.04 35.046-35.04 19.358 0 35.049 15.692 35.049 35.04 0 19.358-15.69 35.052-35.05 35.052zM439.664 0c-44.028 0-76.659 35.69-76.659 79.716 0 44.031 35.688 79.723 79.722 79.723 44.028 0 79.716-35.692 79.716-79.723 0-44.026-38.75-79.716-82.779-79.716"/>
  </g>
</svg>