<svg width="68" height="19" viewBox="0 0 68 19" fill="none" xmlns="http://www.w3.org/2000/svg">
  <path
    d="M5.66051 14V5.27273H9.29972C9.95313 5.27273 10.5 5.36506 10.9403 5.54972C11.3835 5.73437 11.7159 5.9929 11.9375 6.32528C12.1619 6.65767 12.2741 7.04261 12.2741 7.48011C12.2741 7.8125 12.2045 8.10938 12.0653 8.37074C11.9261 8.62926 11.7344 8.84375 11.4901 9.0142C11.2457 9.18466 10.9631 9.30398 10.642 9.37216V9.45739C10.9943 9.47443 11.3196 9.5696 11.6179 9.7429C11.919 9.91619 12.1605 10.1577 12.3423 10.4673C12.5241 10.7741 12.6151 11.1378 12.6151 11.5582C12.6151 12.027 12.4957 12.446 12.2571 12.8153C12.0185 13.1818 11.6733 13.4716 11.2216 13.6847C10.7699 13.8949 10.2216 14 9.5767 14H5.66051ZM7.76989 12.2997H9.07386C9.53125 12.2997 9.8679 12.2131 10.0838 12.0398C10.3026 11.8665 10.4119 11.625 10.4119 11.3153C10.4119 11.0909 10.3594 10.8977 10.2543 10.7358C10.1491 10.571 10 10.4446 9.80682 10.3565C9.61364 10.2656 9.3821 10.2202 9.11222 10.2202H7.76989V12.2997ZM7.76989 8.8608H8.9375C9.16761 8.8608 9.37216 8.82244 9.55114 8.74574C9.73011 8.66903 9.86932 8.55824 9.96875 8.41335C10.071 8.26847 10.1222 8.09375 10.1222 7.8892C10.1222 7.59659 10.0185 7.36648 9.81108 7.19886C9.60369 7.03125 9.32386 6.94744 8.97159 6.94744H7.76989V8.8608ZM13.6293 14V7.45455H15.7131V14H13.6293ZM14.6733 6.69176C14.3807 6.69176 14.1293 6.59517 13.919 6.40199C13.7088 6.20597 13.6037 5.97017 13.6037 5.6946C13.6037 5.42187 13.7088 5.18892 13.919 4.99574C14.1293 4.79972 14.3807 4.7017 14.6733 4.7017C14.9688 4.7017 15.2202 4.79972 15.4276 4.99574C15.6378 5.18892 15.7429 5.42187 15.7429 5.6946C15.7429 5.97017 15.6378 6.20597 15.4276 6.40199C15.2202 6.59517 14.9688 6.69176 14.6733 6.69176ZM20.734 7.45455V8.98864H16.6048V7.45455H20.734ZM17.4698 5.88636H19.5536V11.9418C19.5536 12.0696 19.5735 12.1733 19.6133 12.2528C19.6559 12.3295 19.717 12.3849 19.7965 12.419C19.8761 12.4503 19.9712 12.4659 20.082 12.4659C20.1616 12.4659 20.2454 12.4588 20.3335 12.4446C20.4244 12.4276 20.4925 12.4134 20.538 12.402L20.8533 13.9062C20.7539 13.9347 20.6133 13.9702 20.4315 14.0128C20.2525 14.0554 20.038 14.0824 19.788 14.0938C19.2994 14.1165 18.8803 14.0597 18.5309 13.9233C18.1843 13.7841 17.9187 13.5682 17.734 13.2756C17.5522 12.983 17.4641 12.6151 17.4698 12.1719V5.88636ZM23.6424 14.1108C23.2248 14.1108 22.854 14.0412 22.5302 13.902C22.2092 13.7599 21.9549 13.5469 21.7674 13.2628C21.5827 12.9759 21.4904 12.6165 21.4904 12.1847C21.4904 11.821 21.5543 11.5142 21.6822 11.2642C21.81 11.0142 21.9862 10.8111 22.2106 10.6548C22.435 10.4986 22.6935 10.3807 22.9862 10.3011C23.2788 10.2187 23.5913 10.1634 23.9237 10.1349C24.2958 10.1009 24.5955 10.0653 24.8228 10.0284C25.0501 9.98864 25.2148 9.93324 25.3171 9.86222C25.4222 9.78835 25.4748 9.68466 25.4748 9.55114V9.52983C25.4748 9.31108 25.3995 9.14205 25.2489 9.02273C25.0984 8.90341 24.8952 8.84375 24.6396 8.84375C24.364 8.84375 24.1424 8.90341 23.9748 9.02273C23.8072 9.14205 23.7006 9.30682 23.6552 9.51705L21.7333 9.44886C21.7901 9.05114 21.9364 8.69602 22.1722 8.38352C22.4109 8.06818 22.7376 7.82102 23.1523 7.64205C23.57 7.46023 24.0714 7.36932 24.6566 7.36932C25.0742 7.36932 25.4592 7.41903 25.8114 7.51847C26.1637 7.61506 26.4705 7.7571 26.7319 7.9446C26.9933 8.12926 27.195 8.35653 27.337 8.62642C27.4819 8.89631 27.5543 9.20455 27.5543 9.55114V14H25.5941V13.0881H25.543C25.4265 13.3097 25.2773 13.4972 25.0955 13.6506C24.9165 13.804 24.7049 13.919 24.4606 13.9957C24.2191 14.0724 23.9464 14.1108 23.6424 14.1108ZM24.2859 12.7472C24.5103 12.7472 24.712 12.7017 24.891 12.6108C25.0728 12.5199 25.2177 12.3949 25.3256 12.2358C25.4336 12.0739 25.4876 11.8864 25.4876 11.6733V11.0511C25.4279 11.0824 25.3555 11.1108 25.2702 11.1364C25.1879 11.1619 25.0969 11.1861 24.9975 11.2088C24.8981 11.2315 24.7958 11.2514 24.6907 11.2685C24.5856 11.2855 24.4847 11.3011 24.3881 11.3153C24.1921 11.3466 24.0245 11.3949 23.8853 11.4602C23.7489 11.5256 23.6438 11.6108 23.57 11.7159C23.4989 11.8182 23.4634 11.9403 23.4634 12.0824C23.4634 12.2983 23.5401 12.4631 23.6935 12.5767C23.8498 12.6903 24.0472 12.7472 24.2859 12.7472ZM31.8839 14.1236C31.1935 14.1236 30.6012 13.9815 30.1069 13.6974C29.6154 13.4134 29.2376 13.0185 28.9734 12.5128C28.7092 12.0043 28.5771 11.4162 28.5771 10.7486C28.5771 10.0781 28.7092 9.49006 28.9734 8.98438C29.2404 8.47585 29.6197 8.07955 30.1112 7.79545C30.6055 7.51136 31.195 7.36932 31.8796 7.36932C32.4847 7.36932 33.0117 7.47869 33.4606 7.69744C33.9123 7.91619 34.2646 8.22585 34.5174 8.62642C34.7731 9.02415 34.908 9.49148 34.9222 10.0284H32.9748C32.935 9.69318 32.8214 9.4304 32.6339 9.24006C32.4492 9.04972 32.2077 8.95455 31.9094 8.95455C31.668 8.95455 31.4563 9.02273 31.2745 9.15909C31.0927 9.29261 30.9506 9.49148 30.8484 9.75568C30.7489 10.017 30.6992 10.3409 30.6992 10.7273C30.6992 11.1136 30.7489 11.4403 30.8484 11.7074C30.9506 11.9716 31.0927 12.1719 31.2745 12.3082C31.4563 12.4418 31.668 12.5085 31.9094 12.5085C32.1026 12.5085 32.2731 12.4673 32.4208 12.3849C32.5714 12.3026 32.695 12.1818 32.7915 12.0227C32.8881 11.8608 32.9492 11.6648 32.9748 11.4347H34.9222C34.9023 11.9744 34.7674 12.446 34.5174 12.8494C34.2702 13.2528 33.9222 13.5668 33.4734 13.7912C33.0273 14.0128 32.4975 14.1236 31.8839 14.1236ZM39.044 14.1236C38.3565 14.1236 37.7656 13.983 37.2713 13.7017C36.7798 13.4176 36.4006 13.0227 36.1335 12.517C35.8693 12.0085 35.7372 11.419 35.7372 10.7486C35.7372 10.0753 35.8693 9.4858 36.1335 8.98011C36.4006 8.47159 36.7798 8.0767 37.2713 7.79545C37.7656 7.51136 38.3565 7.36932 39.044 7.36932C39.7315 7.36932 40.321 7.51136 40.8125 7.79545C41.3068 8.0767 41.6861 8.47159 41.9503 8.98011C42.2173 9.4858 42.3509 10.0753 42.3509 10.7486C42.3509 11.419 42.2173 12.0085 41.9503 12.517C41.6861 13.0227 41.3068 13.4176 40.8125 13.7017C40.321 13.983 39.7315 14.1236 39.044 14.1236ZM39.0568 12.5511C39.3068 12.5511 39.5185 12.4744 39.6918 12.321C39.8651 12.1676 39.9972 11.9545 40.0881 11.6818C40.1818 11.4091 40.2287 11.0937 40.2287 10.7358C40.2287 10.3722 40.1818 10.054 40.0881 9.78125C39.9972 9.50852 39.8651 9.29545 39.6918 9.14205C39.5185 8.98864 39.3068 8.91193 39.0568 8.91193C38.7983 8.91193 38.5795 8.98864 38.4006 9.14205C38.2244 9.29545 38.0895 9.50852 37.9957 9.78125C37.9048 10.054 37.8594 10.3722 37.8594 10.7358C37.8594 11.0937 37.9048 11.4091 37.9957 11.6818C38.0895 11.9545 38.2244 12.1676 38.4006 12.321C38.5795 12.4744 38.7983 12.5511 39.0568 12.5511ZM43.4183 14V7.45455H45.4425V8.64773H45.5107C45.63 8.21591 45.8246 7.89489 46.0945 7.68466C46.3643 7.47159 46.6783 7.36506 47.0362 7.36506C47.1328 7.36506 47.2322 7.37216 47.3345 7.38636C47.4368 7.39773 47.532 7.41619 47.62 7.44176V9.25284C47.5206 9.21875 47.3899 9.19176 47.228 9.17188C47.0689 9.15199 46.9268 9.14205 46.8018 9.14205C46.5547 9.14205 46.3317 9.19744 46.1328 9.30824C45.9368 9.41619 45.782 9.56818 45.6683 9.7642C45.5575 9.95739 45.5021 10.1847 45.5021 10.446V14H43.4183ZM50.0682 14.1108C49.6506 14.1108 49.2798 14.0412 48.956 13.902C48.6349 13.7599 48.3807 13.5469 48.1932 13.2628C48.0085 12.9759 47.9162 12.6165 47.9162 12.1847C47.9162 11.821 47.9801 11.5142 48.108 11.2642C48.2358 11.0142 48.4119 10.8111 48.6364 10.6548C48.8608 10.4986 49.1193 10.3807 49.4119 10.3011C49.7045 10.2187 50.017 10.1634 50.3494 10.1349C50.7216 10.1009 51.0213 10.0653 51.2486 10.0284C51.4759 9.98864 51.6406 9.93324 51.7429 9.86222C51.848 9.78835 51.9006 9.68466 51.9006 9.55114V9.52983C51.9006 9.31108 51.8253 9.14205 51.6747 9.02273C51.5241 8.90341 51.321 8.84375 51.0653 8.84375C50.7898 8.84375 50.5682 8.90341 50.4006 9.02273C50.233 9.14205 50.1264 9.30682 50.081 9.51705L48.1591 9.44886C48.2159 9.05114 48.3622 8.69602 48.598 8.38352C48.8366 8.06818 49.1634 7.82102 49.5781 7.64205C49.9957 7.46023 50.4972 7.36932 51.0824 7.36932C51.5 7.36932 51.8849 7.41903 52.2372 7.51847C52.5895 7.61506 52.8963 7.7571 53.1577 7.9446C53.419 8.12926 53.6207 8.35653 53.7628 8.62642C53.9077 8.89631 53.9801 9.20455 53.9801 9.55114V14H52.0199V13.0881H51.9688C51.8523 13.3097 51.7031 13.4972 51.5213 13.6506C51.3423 13.804 51.1307 13.919 50.8864 13.9957C50.6449 14.0724 50.3722 14.1108 50.0682 14.1108ZM50.7116 12.7472C50.9361 12.7472 51.1378 12.7017 51.3168 12.6108C51.4986 12.5199 51.6435 12.3949 51.7514 12.2358C51.8594 12.0739 51.9134 11.8864 51.9134 11.6733V11.0511C51.8537 11.0824 51.7813 11.1108 51.696 11.1364C51.6136 11.1619 51.5227 11.1861 51.4233 11.2088C51.3239 11.2315 51.2216 11.2514 51.1165 11.2685C51.0114 11.2855 50.9105 11.3011 50.8139 11.3153C50.6179 11.3466 50.4503 11.3949 50.3111 11.4602C50.1747 11.5256 50.0696 11.6108 49.9957 11.7159C49.9247 11.8182 49.8892 11.9403 49.8892 12.0824C49.8892 12.2983 49.9659 12.4631 50.1193 12.5767C50.2756 12.6903 50.473 12.7472 50.7116 12.7472Z"
    fill="currentColor" />
  <path
    d="M56.299 6.04749C56.0712 6.04749 55.8752 5.99592 55.7107 5.89278C55.5474 5.78861 55.4218 5.64514 55.3339 5.46234C55.2461 5.27955 55.2022 5.07021 55.2022 4.83431C55.2022 4.59535 55.2471 4.38448 55.337 4.20168C55.4269 4.01787 55.5535 3.87439 55.7169 3.77125C55.8803 3.66811 56.0728 3.61654 56.2944 3.61654C56.4731 3.61654 56.6324 3.64973 56.7723 3.71611C56.9122 3.78146 57.025 3.87337 57.1108 3.99183C57.1976 4.11029 57.2492 4.24866 57.2655 4.40694H56.8198C56.7953 4.29665 56.7391 4.20168 56.6513 4.12203C56.5645 4.04238 56.448 4.00255 56.302 4.00255C56.1744 4.00255 56.0625 4.03625 55.9666 4.10365C55.8716 4.17003 55.7975 4.265 55.7444 4.38856C55.6913 4.5111 55.6648 4.65611 55.6648 4.82359C55.6648 4.99515 55.6908 5.14322 55.7429 5.26781C55.795 5.39239 55.8685 5.48889 55.9635 5.55731C56.0595 5.62573 56.1723 5.65994 56.302 5.65994C56.3888 5.65994 56.4675 5.64412 56.5379 5.61246C56.6094 5.57978 56.6691 5.53332 56.7171 5.47307C56.7661 5.41282 56.8004 5.34031 56.8198 5.25555H57.2655C57.2492 5.40771 57.1996 5.54353 57.1169 5.66301C57.0342 5.78249 56.9234 5.87644 56.7845 5.94486C56.6467 6.01328 56.4848 6.04749 56.299 6.04749ZM57.7553 6V3.64718H58.198V4.02093H58.2225C58.2654 3.89431 58.341 3.79474 58.4492 3.72224C58.5585 3.64871 58.682 3.61195 58.8199 3.61195C58.8485 3.61195 58.8822 3.61297 58.921 3.61501C58.9608 3.61705 58.992 3.61961 59.0144 3.62267V4.06076C58.996 4.05565 58.9634 4.05004 58.9164 4.04391C58.8694 4.03676 58.8224 4.03319 58.7755 4.03319C58.6672 4.03319 58.5707 4.05616 58.486 4.10212C58.4022 4.14705 58.3358 4.20985 58.2868 4.29053C58.2378 4.37018 58.2133 4.46107 58.2133 4.56319V6H57.7553ZM59.4108 6V3.64718H59.8504V4.03012H59.8795C59.9285 3.90043 60.0087 3.79934 60.12 3.72683C60.2313 3.65331 60.3646 3.61654 60.5198 3.61654C60.6771 3.61654 60.8088 3.65331 60.915 3.72683C61.0222 3.80036 61.1014 3.90145 61.1524 4.03012H61.1769C61.2331 3.90452 61.3224 3.80444 61.445 3.72989C61.5675 3.65433 61.7136 3.61654 61.8831 3.61654C62.0965 3.61654 62.2706 3.68343 62.4054 3.81721C62.5412 3.95098 62.6091 4.15267 62.6091 4.42226V6H62.1511V4.46515C62.1511 4.30585 62.1077 4.19045 62.0209 4.11897C61.9341 4.04748 61.8305 4.01174 61.71 4.01174C61.5609 4.01174 61.445 4.0577 61.3623 4.1496C61.2796 4.24049 61.2382 4.35742 61.2382 4.50038V6H60.7817V4.43605C60.7817 4.3084 60.7419 4.20577 60.6622 4.12816C60.5826 4.05055 60.4789 4.01174 60.3513 4.01174C60.2645 4.01174 60.1843 4.03472 60.1108 4.08067C60.0383 4.12561 59.9796 4.18841 59.9346 4.26908C59.8907 4.34976 59.8688 4.4432 59.8688 4.5494V6H59.4108Z"
    fill="currentColor" />
</svg>