
<svg width="45" height="22" viewBox="0 0 45 22" fill="none" xmlns="http://www.w3.org/2000/svg">
<path d="M3.948 10.976V6.152H3V4.652H3.948V4.076C3.948 3.596 4.024 3.204 4.176 2.9C4.336 2.588 4.576 2.36 4.896 2.216C5.224 2.072 5.64 2 6.144 2H7.188V3.488H6.36C6.176 3.488 6.028 3.516 5.916 3.572C5.812 3.628 5.74 3.716 5.7 3.836C5.66 3.948 5.64 4.088 5.64 4.256V4.652H7.188V6.152H5.64V10.976H3.948Z" fill="currentColor"/>
<path d="M7.90547 10.976V2.48H9.58547V10.976H7.90547Z" fill="currentColor"/>
<path d="M12.8012 11.06C12.5132 11.06 12.2332 11.024 11.9612 10.952C11.6972 10.872 11.4612 10.752 11.2532 10.592C11.0452 10.432 10.8812 10.232 10.7612 9.992C10.6412 9.752 10.5812 9.472 10.5812 9.152C10.5812 8.72 10.6692 8.376 10.8452 8.12C11.0212 7.856 11.2572 7.656 11.5532 7.52C11.8492 7.384 12.1892 7.292 12.5732 7.244C12.9652 7.196 13.3692 7.172 13.7852 7.172H14.6972C14.6972 6.94 14.6532 6.736 14.5652 6.56C14.4852 6.376 14.3612 6.236 14.1932 6.14C14.0252 6.036 13.8092 5.984 13.5452 5.984C13.3772 5.984 13.2132 6.008 13.0532 6.056C12.9012 6.096 12.7732 6.156 12.6692 6.236C12.5652 6.316 12.4972 6.42 12.4652 6.548H10.7612C10.8092 6.196 10.9212 5.896 11.0972 5.648C11.2732 5.392 11.4932 5.184 11.7572 5.024C12.0212 4.864 12.3092 4.748 12.6212 4.676C12.9412 4.596 13.2692 4.556 13.6052 4.556C14.5252 4.556 15.2052 4.82 15.6452 5.348C16.0852 5.868 16.3052 6.608 16.3052 7.568V10.976H14.7932L14.7692 10.16C14.5692 10.44 14.3412 10.644 14.0852 10.772C13.8372 10.9 13.5972 10.98 13.3652 11.012C13.1332 11.044 12.9452 11.06 12.8012 11.06ZM13.1852 9.728C13.4652 9.728 13.7212 9.672 13.9532 9.56C14.1852 9.448 14.3692 9.296 14.5052 9.104C14.6412 8.912 14.7092 8.696 14.7092 8.456V8.3H13.5572C13.3892 8.3 13.2252 8.308 13.0652 8.324C12.9132 8.34 12.7732 8.372 12.6452 8.42C12.5252 8.46 12.4292 8.528 12.3572 8.624C12.2852 8.72 12.2492 8.848 12.2492 9.008C12.2492 9.168 12.2892 9.304 12.3692 9.416C12.4572 9.52 12.5732 9.6 12.7172 9.656C12.8612 9.704 13.0172 9.728 13.1852 9.728Z" fill="currentColor"/>
<path d="M20.3655 10.976C19.8375 10.976 19.3935 10.912 19.0335 10.784C18.6815 10.656 18.4135 10.44 18.2295 10.136C18.0535 9.824 17.9655 9.4 17.9655 8.864V6.152H17.0295V4.652H17.9655V2.96H19.6455V4.652H21.0255V6.152H19.6455V8.624C19.6455 8.888 19.6935 9.096 19.7895 9.248C19.8855 9.4 20.1015 9.476 20.4375 9.476H20.9655V10.976H20.3655Z" fill="currentColor"/>
<path d="M7.18248 19.0259V12.7019H8.69448L8.83848 13.4099C8.99848 13.1859 9.17448 13.0179 9.36648 12.9059C9.56648 12.7859 9.76648 12.7059 9.96648 12.6659C10.1665 12.6259 10.3505 12.6059 10.5185 12.6059C10.8945 12.6059 11.2265 12.6779 11.5145 12.8219C11.8025 12.9659 12.0345 13.1979 12.2105 13.5179C12.3785 13.2859 12.5625 13.1059 12.7625 12.9779C12.9625 12.8419 13.1745 12.7459 13.3985 12.6899C13.6225 12.6339 13.8505 12.6059 14.0825 12.6059C14.5705 12.6059 14.9625 12.7099 15.2585 12.9179C15.5625 13.1179 15.7825 13.3979 15.9185 13.7579C16.0625 14.1179 16.1345 14.5379 16.1345 15.0179V19.0259H14.4545V15.4619C14.4545 15.3179 14.4465 15.1699 14.4305 15.0179C14.4145 14.8659 14.3745 14.7219 14.3105 14.5859C14.2545 14.4499 14.1665 14.3379 14.0465 14.2499C13.9345 14.1619 13.7745 14.1179 13.5665 14.1179C13.3665 14.1179 13.1985 14.1619 13.0625 14.2499C12.9265 14.3379 12.8185 14.4579 12.7385 14.6099C12.6585 14.7539 12.5985 14.9139 12.5585 15.0899C12.5265 15.2579 12.5105 15.4299 12.5105 15.6059V19.0259H10.8305V15.4499C10.8305 15.3139 10.8225 15.1699 10.8065 15.0179C10.7905 14.8659 10.7545 14.7219 10.6985 14.5859C10.6425 14.4499 10.5505 14.3379 10.4225 14.2499C10.3025 14.1619 10.1345 14.1179 9.91848 14.1179C9.62248 14.1179 9.39448 14.2059 9.23448 14.3819C9.08248 14.5499 8.98248 14.7539 8.93448 14.9939C8.88648 15.2259 8.86248 15.4419 8.86248 15.6419V19.0259H7.18248Z" fill="currentColor"/>
<path d="M19.2852 19.1099C18.9972 19.1099 18.7172 19.0739 18.4452 19.0019C18.1812 18.9219 17.9452 18.8019 17.7372 18.6419C17.5292 18.4819 17.3652 18.2819 17.2452 18.0419C17.1252 17.8019 17.0652 17.5219 17.0652 17.2019C17.0652 16.7699 17.1532 16.4259 17.3292 16.1699C17.5052 15.9059 17.7412 15.7059 18.0372 15.5699C18.3332 15.4339 18.6732 15.3419 19.0572 15.2939C19.4492 15.2459 19.8532 15.2219 20.2692 15.2219H21.1812C21.1812 14.9899 21.1372 14.7859 21.0492 14.6099C20.9692 14.4259 20.8452 14.2859 20.6772 14.1899C20.5092 14.0859 20.2932 14.0339 20.0292 14.0339C19.8612 14.0339 19.6972 14.0579 19.5372 14.1059C19.3852 14.1459 19.2572 14.2059 19.1532 14.2859C19.0492 14.3659 18.9812 14.4699 18.9492 14.5979H17.2452C17.2932 14.2459 17.4052 13.9459 17.5812 13.6979C17.7572 13.4419 17.9772 13.2339 18.2412 13.0739C18.5052 12.9139 18.7932 12.7979 19.1052 12.7259C19.4252 12.6459 19.7532 12.6059 20.0892 12.6059C21.0092 12.6059 21.6892 12.8699 22.1292 13.3979C22.5692 13.9179 22.7892 14.6579 22.7892 15.6179V19.0259H21.2772L21.2532 18.2099C21.0532 18.4899 20.8252 18.6939 20.5692 18.8219C20.3212 18.9499 20.0812 19.0299 19.8492 19.0619C19.6172 19.0939 19.4292 19.1099 19.2852 19.1099ZM19.6692 17.7779C19.9492 17.7779 20.2052 17.7219 20.4372 17.6099C20.6692 17.4979 20.8532 17.3459 20.9892 17.1539C21.1252 16.9619 21.1932 16.7459 21.1932 16.5059V16.3499H20.0412C19.8732 16.3499 19.7092 16.3579 19.5492 16.3739C19.3972 16.3899 19.2572 16.4219 19.1292 16.4699C19.0092 16.5099 18.9132 16.5779 18.8412 16.6739C18.7692 16.7699 18.7332 16.8979 18.7332 17.0579C18.7332 17.2179 18.7732 17.3539 18.8532 17.4659C18.9412 17.5699 19.0572 17.6499 19.2012 17.7059C19.3452 17.7539 19.5012 17.7779 19.6692 17.7779Z" fill="currentColor"/>
<path d="M26.5615 19.1099C25.8495 19.1099 25.3215 18.9099 24.9775 18.5099C24.6415 18.1099 24.4735 17.5619 24.4735 16.8659V14.2019H23.5255V12.7019H24.4735V10.9979H26.1535V12.7019H28.0735V14.2019H26.1535V16.5179C26.1535 16.7259 26.1775 16.9059 26.2255 17.0579C26.2815 17.2099 26.3695 17.3299 26.4895 17.4179C26.6175 17.4979 26.7895 17.5379 27.0055 17.5379C27.1975 17.5379 27.3575 17.5099 27.4855 17.4539C27.6215 17.3899 27.7335 17.3219 27.8215 17.2499L28.3495 18.5459C28.1815 18.6819 27.9935 18.7939 27.7855 18.8819C27.5855 18.9619 27.3815 19.0179 27.1735 19.0499C26.9655 19.0899 26.7615 19.1099 26.5615 19.1099Z" fill="currentColor"/>
<path d="M31.756 19.1099C31.108 19.1099 30.552 18.9779 30.088 18.7139C29.632 18.4499 29.284 18.0779 29.044 17.5979C28.804 17.1099 28.684 16.5379 28.684 15.8819C28.684 15.2179 28.808 14.6419 29.056 14.1539C29.304 13.6579 29.66 13.2739 30.124 13.0019C30.596 12.7299 31.164 12.5939 31.828 12.5939C32.34 12.5939 32.796 12.6859 33.196 12.8699C33.596 13.0539 33.916 13.3179 34.156 13.6619C34.404 14.0059 34.548 14.4299 34.588 14.9339H32.944C32.872 14.6539 32.732 14.4499 32.524 14.3219C32.324 14.1939 32.084 14.1299 31.804 14.1299C31.444 14.1299 31.156 14.2179 30.94 14.3939C30.732 14.5699 30.58 14.7939 30.484 15.0659C30.396 15.3379 30.352 15.6099 30.352 15.8819C30.352 16.1779 30.4 16.4579 30.496 16.7219C30.592 16.9779 30.744 17.1899 30.952 17.3579C31.168 17.5179 31.448 17.5979 31.792 17.5979C32.08 17.5979 32.332 17.5339 32.548 17.4059C32.764 17.2699 32.904 17.0619 32.968 16.7819H34.648C34.608 17.3019 34.452 17.7339 34.18 18.0779C33.908 18.4219 33.56 18.6819 33.136 18.8579C32.72 19.0259 32.26 19.1099 31.756 19.1099Z" fill="currentColor"/>
<path d="M35.5423 19.0259V10.5299H37.2223V13.4339C37.4063 13.2179 37.6103 13.0499 37.8343 12.9299C38.0663 12.8099 38.2983 12.7259 38.5303 12.6779C38.7703 12.6219 38.9903 12.5939 39.1903 12.5939C39.7823 12.5939 40.2463 12.7259 40.5823 12.9899C40.9183 13.2539 41.1583 13.6099 41.3023 14.0579C41.4463 14.5059 41.5183 14.9979 41.5183 15.5339V19.0259H39.8383V15.7739C39.8383 15.5819 39.8183 15.3899 39.7783 15.1979C39.7463 15.0059 39.6863 14.8299 39.5983 14.6699C39.5103 14.5019 39.3863 14.3699 39.2263 14.2739C39.0663 14.1699 38.8543 14.1179 38.5903 14.1179C38.3423 14.1179 38.1303 14.1699 37.9543 14.2739C37.7783 14.3779 37.6343 14.5179 37.5223 14.6939C37.4183 14.8619 37.3423 15.0499 37.2943 15.2579C37.2463 15.4659 37.2223 15.6739 37.2223 15.8819V19.0259H35.5423Z" fill="currentColor"/>
</svg>
