<svg width="401" height="217" viewBox="0 0 401 217" fill="none" xmlns="http://www.w3.org/2000/svg">
<rect y="0.00244141" width="400.298" height="216.115" rx="37" fill="#565750"/>
<path d="M94.7555 102.78C88.6154 102.863 83.1806 101.577 78.4511 98.9214C73.8045 96.2662 70.1536 92.5323 67.4984 87.7198C64.9262 82.9073 63.6401 77.3065 63.6401 70.9175C63.6401 64.6114 64.9262 59.0522 67.4984 54.2397C70.1536 49.3442 73.8045 45.5688 78.4511 42.9136C83.0976 40.1755 88.4495 38.8064 94.5066 38.8064C101.642 38.8064 107.866 40.6318 113.176 44.2827C117.896 47.5276 121.337 51.8541 123.501 57.262C123.941 58.3613 123.248 59.5602 122.091 59.8108L106.402 63.2085C105.432 63.4186 104.475 62.872 103.987 62.0075C103.282 60.7584 102.362 59.7456 101.228 58.9692C99.734 57.8905 97.9915 57.3512 96.0002 57.3512C93.9258 57.3512 92.0589 57.932 90.3994 59.0937C88.8229 60.2553 87.5783 61.8733 86.6655 63.9477C85.7528 66.022 85.2965 68.3453 85.2965 70.9175C85.2965 74.8173 86.2922 78.0118 88.2835 80.5011C90.2749 82.9903 92.8056 84.2349 95.8757 84.2349C97.8671 84.2349 99.6095 83.6956 101.103 82.6169C102.28 81.812 103.271 80.7529 104.078 79.4397C104.572 78.6357 105.495 78.1586 106.416 78.3639L122.232 81.8897C123.383 82.1462 124.069 83.3408 123.625 84.4331C121.517 89.6247 118.075 93.8733 113.3 97.1789C107.99 100.83 101.808 102.697 94.7555 102.78Z" fill="white"/>
<path d="M171.342 101.908C170.372 101.908 169.542 101.213 169.373 100.258L169.027 98.3098C168.734 96.6549 166.626 96.0571 165.395 97.2016C164.067 98.4373 162.711 99.5084 161.327 100.415C159.004 101.991 155.851 102.78 151.868 102.78C148.217 102.78 144.857 102.116 141.786 100.788C138.799 99.3777 136.393 97.3449 134.568 94.6897C132.742 92.0345 131.83 88.7985 131.83 84.9817C131.83 79.8373 133.655 75.6056 137.306 72.2866C140.957 68.9676 146.723 66.8518 154.606 65.939L166.514 64.64C167.528 64.5293 168.297 63.6724 168.297 62.6518V60.8361C168.297 59.6745 167.716 58.5128 166.554 57.3512C165.393 56.1066 163.609 55.4843 161.202 55.4843C159.045 55.4843 157.178 56.0651 155.602 57.2267C154.573 57.9847 153.756 58.937 153.152 60.0837C152.61 61.111 151.435 61.7461 150.343 61.353L136.912 56.5218C135.886 56.153 135.338 55.0271 135.755 54.0203C137.713 49.2879 140.72 45.6687 144.774 43.1626C149.337 40.2585 155.062 38.8064 161.949 38.8064C170.662 38.8064 177.3 40.9637 181.863 45.2784C186.427 49.5931 188.709 55.5258 188.709 63.0764V99.9084C188.709 101.013 187.813 101.908 186.709 101.908H171.342ZM168.297 77.1406C168.297 76.4776 167.719 75.9626 167.06 76.0386L158.589 77.0161C156.68 77.2651 155.228 77.8874 154.233 78.883C153.237 79.8787 152.739 81.0819 152.739 82.4924C152.739 83.903 153.32 85.0646 154.482 85.9774C155.726 86.8901 157.427 87.3464 159.584 87.3464C161.327 87.3464 162.82 86.9731 164.065 86.2263C165.393 85.3965 166.43 84.2349 167.177 82.7414C167.923 81.2478 168.297 79.3809 168.297 77.1406Z" fill="white"/>
<path d="M214.883 81.6415C215.924 81.4209 216.927 82.0718 217.396 83.0271C217.637 83.5186 217.917 83.9627 218.234 84.3594C218.898 85.1061 219.769 85.687 220.848 86.1018C221.926 86.5167 223.171 86.7241 224.582 86.7241C226.739 86.7241 228.398 86.3507 229.56 85.604C230.805 84.8572 231.427 83.903 231.427 82.7414C231.427 81.5797 230.929 80.7085 229.934 80.1277C229.021 79.4639 227.818 78.9245 226.324 78.5097C224.831 78.0948 223.254 77.7214 221.595 77.3895C219.52 76.9746 217.197 76.4353 214.625 75.7715C212.053 75.1077 209.563 74.1535 207.157 72.9089C204.834 71.5813 202.884 69.7974 201.307 67.557C199.814 65.3167 199.067 62.4541 199.067 58.9692C199.067 55.1524 200.063 51.7504 202.054 48.7633C204.045 45.6933 206.95 43.287 210.766 41.5446C214.666 39.7191 219.437 38.8064 225.079 38.8064C231.966 38.8064 237.443 40.217 241.508 43.0381C244.999 45.4604 247.573 48.678 249.229 52.6908C249.675 53.7738 248.99 54.9587 247.847 55.2162L234.204 58.2907C233.145 58.5296 232.15 57.8005 231.415 57.0006C231.234 56.8042 231.031 56.6307 230.805 56.48C230.141 55.8991 229.311 55.4843 228.316 55.2353C227.32 54.9864 226.324 54.862 225.328 54.862C223.42 54.862 222.009 55.2353 221.097 55.9821C220.184 56.6459 219.728 57.4342 219.728 58.3469C219.728 59.0937 219.977 59.716 220.474 60.2138C220.972 60.6287 221.636 60.9606 222.466 61.2095C223.379 61.4584 224.416 61.7073 225.577 61.9563C226.822 62.1222 228.108 62.3711 229.436 62.703C231.925 63.2839 234.456 63.9891 237.028 64.8189C239.683 65.5657 242.131 66.6443 244.371 68.0549C246.694 69.4655 248.561 71.3324 249.972 73.6557C251.382 75.9789 252.129 79.0075 252.212 82.7414C252.212 86.4752 251.175 89.8772 249.101 92.9472C247.026 95.9343 243.956 98.3405 239.89 100.166C235.908 101.908 230.929 102.78 224.955 102.78C217.653 102.78 211.596 101.328 206.784 98.4235C202.591 95.7753 199.8 92.0183 198.411 87.1527C198.11 86.0991 198.809 85.0478 199.881 84.8207L214.883 81.6415Z" fill="white"/>
<path d="M262.059 0H282.471V41.0267C282.471 42.9083 285.016 43.8991 286.525 42.7753C287.362 42.1522 288.251 41.576 289.192 41.0467C291.93 39.5532 295.083 38.8064 298.651 38.8064C303.463 38.8064 307.612 39.8851 311.097 42.0424C314.582 44.1168 317.237 47.1453 319.063 51.1281C320.971 55.1109 321.925 59.9234 321.925 65.5657V99.9084C321.925 101.013 321.03 101.908 319.925 101.908H302.269C301.164 101.908 300.269 101.013 300.269 99.9084V68.0549C300.269 64.487 299.522 61.7903 298.029 59.9649C296.535 58.0565 294.336 57.1023 291.432 57.1023C288.445 57.1023 286.205 58.2639 284.711 60.5872C283.218 62.9105 282.471 65.8976 282.471 69.5484V99.9084C282.471 101.013 281.575 101.908 280.471 101.908H264.059C262.955 101.908 262.059 101.013 262.059 99.9084V0Z" fill="white"/>
<path d="M243.622 119.49C244.501 119.49 245.277 120.064 245.535 120.904L254.639 150.594C255.217 152.479 257.886 152.479 258.464 150.594L267.568 120.904C267.826 120.064 268.602 119.49 269.481 119.49H287.202C288.583 119.49 289.548 120.856 289.087 122.158L268.474 180.389C268.191 181.187 267.436 181.721 266.588 181.721H246.515C245.667 181.721 244.912 181.187 244.629 180.389L224.016 122.158C223.555 120.856 224.52 119.49 225.901 119.49H243.622Z" fill="white"/>
<path d="M300.771 121.49C300.771 120.386 301.667 119.49 302.771 119.49H319.183C320.288 119.49 321.183 120.386 321.183 121.49V179.721C321.183 180.826 320.288 181.721 319.183 181.721H302.771C301.667 181.721 300.771 180.826 300.771 179.721V121.49Z" fill="white"/>
<path d="M335.961 94.1088C335.961 93.0042 336.856 92.1088 337.961 92.1088H354.373C355.477 92.1088 356.373 93.0042 356.373 94.1088V179.721C356.373 180.826 355.477 181.721 354.373 181.721H337.961C336.856 181.721 335.961 180.826 335.961 179.721V94.1088Z" fill="white"/>
<g filter="url(#filter0_d_125_188)">
<path d="M187.401 117.619C193.69 117.619 199.375 118.98 204.431 121.723H204.43C209.485 124.381 213.476 128.201 216.388 133.167L216.659 133.63C219.407 138.443 220.761 144.114 220.761 150.605C220.761 153.737 219.825 157.644 218.84 160.908C217.848 164.197 216.773 166.94 216.437 167.775C216.331 168.038 216.188 168.281 216.01 168.501C215.46 169.182 213.684 171.34 211.472 173.627C209.286 175.887 206.58 178.371 204.169 179.618L204.17 179.619C199.116 182.275 193.436 183.593 187.152 183.593C180.868 183.593 175.226 182.275 170.251 179.616C165.273 176.955 161.322 173.131 158.41 168.163L158.404 168.151C155.565 163.163 154.166 157.302 154.166 150.605C154.166 143.905 155.609 138.078 158.539 133.167C161.45 128.202 165.4 124.38 170.376 121.72C175.431 118.979 181.114 117.619 187.401 117.619ZM121.819 117.619C126.854 117.619 131.263 118.728 135.007 120.985C138.841 123.164 141.797 126.344 143.872 130.493C145.948 134.647 146.964 139.621 146.964 145.378V179.721C146.964 181.377 145.621 182.721 143.964 182.721H127.552C125.895 182.721 124.552 181.377 124.552 179.721V147.867C124.552 144.616 123.76 142.332 122.339 140.841L122.323 140.823L122.306 140.805C120.958 139.244 119.021 138.413 116.342 138.413C113.587 138.413 111.562 139.282 110.127 140.932C108.769 142.506 108.007 144.927 108.007 148.365V179.721C108.007 181.377 106.664 182.721 105.007 182.721H88.5962C86.9393 182.721 85.5962 181.377 85.5962 179.721V147.867C85.5961 144.592 84.8744 142.293 83.5962 140.802L83.5894 140.793L83.5815 140.784C82.3214 139.244 80.4395 138.413 77.7593 138.413C74.9852 138.413 73.0667 139.251 71.812 140.784C70.5173 142.367 69.7983 144.721 69.7983 147.992V179.721C69.7983 181.377 68.455 182.72 66.7983 182.721H50.3862C48.7294 182.721 47.3862 181.377 47.3862 179.721V121.49L47.3901 121.336C47.4705 119.751 48.7812 118.49 50.3862 118.49H65.2085C66.6101 118.49 67.8248 119.461 68.1343 120.828L68.4136 122.059C68.5009 122.444 68.7919 122.733 69.2153 122.855C69.6473 122.98 70.1312 122.901 70.4868 122.613C71.7695 121.574 73.1668 120.653 74.6763 119.852C77.4867 118.358 80.5953 117.619 83.9819 117.619C87.7909 117.619 91.3913 118.486 94.769 120.219C97.3395 121.537 99.5639 123.284 101.436 125.455C101.935 126.034 102.853 126.07 103.375 125.56C105.381 123.594 107.678 121.901 110.259 120.481C113.737 118.569 117.597 117.619 121.819 117.619ZM187.401 138.164C185.681 138.164 184.127 138.609 182.717 139.497C181.414 140.369 180.323 141.7 179.473 143.555C178.638 145.377 178.195 147.713 178.195 150.605C178.195 153.499 178.597 155.843 179.356 157.673C180.206 159.522 181.297 160.849 182.6 161.719C184.016 162.609 185.526 163.048 187.152 163.048C188.784 163.048 190.301 162.606 191.721 161.709L191.731 161.702L191.741 161.696C193.214 160.812 194.42 159.473 195.343 157.626C196.25 155.813 196.731 153.488 196.731 150.605C196.731 147.723 196.25 145.398 195.343 143.585C194.413 141.725 193.24 140.384 191.845 139.503C190.417 138.601 188.941 138.164 187.401 138.164Z" stroke="#B0E1F5" stroke-width="2" shape-rendering="crispEdges"/>
</g>
<defs>
<filter id="filter0_d_125_188" x="38.2862" y="108.519" width="191.575" height="84.1733" filterUnits="userSpaceOnUse" color-interpolation-filters="sRGB">
<feFlood flood-opacity="0" result="BackgroundImageFix"/>
<feColorMatrix in="SourceAlpha" type="matrix" values="0 0 0 0 0 0 0 0 0 0 0 0 0 0 0 0 0 0 127 0" result="hardAlpha"/>
<feOffset/>
<feGaussianBlur stdDeviation="4.05"/>
<feComposite in2="hardAlpha" operator="out"/>
<feColorMatrix type="matrix" values="0 0 0 0 0.443437 0 0 0 0 0.752054 0 0 0 0 0.825 0 0 0 1 0"/>
<feBlend mode="normal" in2="BackgroundImageFix" result="effect1_dropShadow_125_188"/>
<feBlend mode="normal" in="SourceGraphic" in2="effect1_dropShadow_125_188" result="shape"/>
</filter>
</defs>
</svg>
